<?xml version="1.0" encoding="utf-8"?>
<!-- Generator: Adobe Illustrator 24.1.1, SVG Export Plug-In . SVG Version: 6.00 Build 0)  -->
<svg version="1.1" id="Layer_1" xmlns="http://www.w3.org/2000/svg" xmlns:xlink="http://www.w3.org/1999/xlink" x="0px" y="0px"
	 viewBox="0 0 512 512" style="enable-background:new 0 0 512 512;" xml:space="preserve">
<g>
	<path d="M256.01,460.77c14.15,0,25.59-11.47,25.59-25.59c0-14.15-11.45-25.59-25.59-25.59c-14.15,0-25.59,11.45-25.59,25.59
		C230.41,449.3,241.86,460.77,256.01,460.77z M282.45,363.07c39.82,14.62,60.24,58.76,45.62,98.58
		c-14.62,39.82-58.76,60.26-98.58,45.62c-39.82-14.62-60.24-58.74-45.62-98.58c7.9-21.47,24.94-38.32,46.54-45.94v-26.79l0.2-5.67
		c-1.55-6.82-5.82-12.7-11.82-16.3l-78.98-47.22c-23.17-13.87-37.37-38.89-37.37-65.91v-51.59c-39.99-14.15-60.96-58.04-46.82-98.03
		c14.12-39.99,58.01-60.96,98-46.82c39.99,14.12,60.96,58.01,46.82,98c-7.72,21.9-24.94,39.09-46.82,46.84v51.59
		c0,9,4.75,17.35,12.47,21.97l78.98,47.24c4.02,2.4,7.82,5.2,11.32,8.3c3.55-3.12,7.35-5.9,11.37-8.3l78.98-47.24
		c7.72-4.62,12.47-12.97,12.47-21.97v-51.29c-40.14-13.7-61.59-57.36-47.87-97.5c10.6-31.07,39.79-51.96,72.61-51.99
		c42.42-0.02,76.81,34.34,76.81,76.76c0.02,32.22-20.1,61.04-50.36,72.11v51.91c0,27.02-14.2,52.04-37.37,65.91L294.08,314
		c-6,3.6-10.27,9.5-11.82,16.3l0.2,5.65V363.07z M128.04,102.45c14.15,0,25.59-11.47,25.59-25.59c0-14.15-11.45-25.59-25.59-25.59
		s-25.59,11.45-25.59,25.59C102.44,90.97,113.89,102.45,128.04,102.45z M383.98,102.45c14.15,0,25.59-11.47,25.59-25.59
		c0-14.15-11.45-25.59-25.59-25.59c-14.15,0-25.59,11.45-25.59,25.59C358.39,90.97,369.83,102.45,383.98,102.45z"/>
</g>
</svg>
